<svg width="40" height="40" viewBox="0 0 40 40" fill="none" xmlns="http://www.w3.org/2000/svg">
<g clip-path="url(#clip0_75_76)">
<path fill-rule="evenodd" clip-rule="evenodd" d="M20 23.5349L28.8384 32.3749C29.3074 32.8439 29.9434 33.1074 30.6067 33.1074C31.27 33.1074 31.906 32.8439 32.375 32.3749C32.844 31.9059 33.1075 31.2699 33.1075 30.6066C33.1075 29.9434 32.844 29.3073 32.375 28.8383L23.5334 19.9999L32.3734 11.1616C32.6055 10.9294 32.7896 10.6537 32.9152 10.3504C33.0407 10.047 33.1053 9.72185 33.1052 9.39352C33.1052 9.06518 33.0404 8.74008 32.9147 8.43677C32.789 8.13346 32.6048 7.85788 32.3725 7.62577C32.1403 7.39366 31.8646 7.20956 31.5613 7.08399C31.2579 6.95841 30.9328 6.89382 30.6044 6.89389C30.2761 6.89397 29.951 6.95872 29.6477 7.08444C29.3444 7.21016 29.0688 7.39439 28.8367 7.62661L20 16.4649L11.1617 7.62661C10.9312 7.38772 10.6554 7.19714 10.3505 7.06598C10.0455 6.93481 9.71751 6.86569 9.38556 6.86265C9.05362 6.85961 8.72439 6.92271 8.41709 7.04827C8.10979 7.17383 7.83058 7.35933 7.59574 7.59395C7.3609 7.82857 7.17513 8.10761 7.04929 8.41479C6.92344 8.72197 6.86003 9.05114 6.86276 9.38309C6.86548 9.71503 6.93429 10.0431 7.06517 10.3482C7.19604 10.6533 7.38637 10.9292 7.62503 11.1599L16.4667 19.9999L7.6267 28.8383C7.15771 29.3073 6.89423 29.9434 6.89423 30.6066C6.89423 31.2699 7.15771 31.9059 7.6267 32.3749C8.09569 32.8439 8.73178 33.1074 9.39503 33.1074C10.0583 33.1074 10.6944 32.8439 11.1634 32.3749L20 23.5333V23.5349Z" fill="#019EE2"/>
</g>
<defs>
<clipPath id="clip0_75_76">
<rect width="40" height="40" fill="white"/>
</clipPath>
</defs>
</svg>
