<svg width="40" height="40" viewBox="0 0 40 40" fill="none" xmlns="http://www.w3.org/2000/svg">
<path d="M27.4558 8.48012C27.2844 8.32793 27.0808 8.20718 26.8567 8.12479C26.6326 8.04241 26.3923 8 26.1496 8C25.907 8 25.6667 8.04241 25.4426 8.12479C25.2185 8.20718 25.0149 8.32793 24.8435 8.48012L12.4316 19.4753C12.2948 19.5962 12.1862 19.7399 12.1122 19.898C12.0381 20.0562 12 20.2257 12 20.397C12 20.5682 12.0381 20.7377 12.1122 20.8959C12.1862 21.0541 12.2948 21.1977 12.4316 21.3187L24.8435 32.3138C25.5667 32.9545 26.7326 32.9545 27.4558 32.3138C28.1789 31.6732 28.1789 30.6404 27.4558 29.9998L16.623 20.4035L27.4705 10.7942C28.1789 10.1536 28.1789 9.12074 27.4558 8.48012Z" fill="#019EE2"/>
</svg>
