<svg width="40" height="40" viewBox="0 0 40 40" fill="none" xmlns="http://www.w3.org/2000/svg">
<path d="M32.75 6.25C29.375 3.125 24.9375 1.25 20 1.25C15.0625 1.25 10.625 3.125 7.25 6.25H32.75ZM7.25 33.75C10.625 36.875 15.0625 38.75 20 38.75C24.9375 38.75 29.375 36.875 32.75 33.75H7.25Z" fill="#ED4C5C"/>
<path d="M1.25 20C1.25 22.6875 1.8125 25.1875 2.8125 27.5H37.1875C38.1875 25.1875 38.75 22.6875 38.75 20C38.75 17.3125 38.1875 14.8125 37.1875 12.5H2.8125C1.8125 14.8125 1.25 17.3125 1.25 20Z" fill="#2A5F9E"/>
<path d="M7.25 33.75H32.6875C34.5625 32 36.125 29.875 37.125 27.5H2.75C3.875 29.875 5.375 32 7.25 33.75ZM32.75 6.25H7.25C5.375 8 3.8125 10.125 2.8125 12.5H37.1875C36.125 10.125 34.625 8 32.75 6.25Z" fill="#F9F9F9"/>
</svg>
