<svg width="40" height="40" viewBox="0 0 40 40" fill="none" xmlns="http://www.w3.org/2000/svg">
<path d="M13.75 37.6875V29.0625L7.3125 33.8125C9.125 35.5 11.3125 36.8125 13.75 37.6875ZM26.25 37.6875C28.6875 36.8125 30.875 35.5 32.6875 33.8125L26.25 29V37.6875ZM2.3125 26.25C2.5 26.875 2.75 27.4375 3.0625 28.0625L5.5 26.25H2.3125ZM34.5 26.25L36.9375 28.0625C37.1875 27.5 37.4375 26.875 37.6875 26.25H34.5Z" fill="#2A5F9E"/>
<path d="M14.6875 23.75H1.625C1.8125 24.625 2.0625 25.4375 2.3125 26.25H5.5L3.0625 28.0625C3.5625 29.125 4.125 30.0625 4.8125 31L11.25 26.25H13.75V27.5L6.4375 32.875L7.3125 33.75L13.75 29.0625V37.6875C14.5625 38 15.375 38.1875 16.25 38.375V23.75H14.6875ZM38.375 23.75H23.75V38.375C24.625 38.1875 25.4375 37.9375 26.25 37.6875V29.0625L32.6875 33.75C33.5625 32.9375 34.3125 32.0625 35.0625 31.125L28.375 26.25H32.625L36.4375 29.0625C36.625 28.75 36.8125 28.375 36.9375 28.0625L34.5 26.25H37.6875C37.9375 25.4375 38.1875 24.625 38.375 23.75Z" fill="white"/>
<path d="M4.8125 31C5.3125 31.6875 5.8125 32.3125 6.375 32.9375L13.75 27.5625V26.3125H11.25L4.8125 31ZM28.4375 26.25L35.125 31.125C35.375 30.8125 35.5625 30.5 35.8125 30.1875C35.875 30.125 35.875 30.0625 35.9375 30.0625C36.125 29.75 36.375 29.375 36.5625 29.0625L32.625 26.25H28.4375Z" fill="#ED4C5C"/>
<path d="M26.25 2.3125V10.9375L32.6875 6.1875C30.875 4.5 28.6875 3.1875 26.25 2.3125ZM13.75 2.3125C11.3125 3.1875 9.125 4.5 7.3125 6.1875L13.75 11V2.3125ZM37.6875 13.75C37.5 13.125 37.25 12.5625 36.9375 11.9375L34.5 13.75H37.6875ZM5.5 13.75L3.0625 11.9375C2.8125 12.5625 2.5625 13.125 2.3125 13.75H5.5Z" fill="#2A5F9E"/>
<path d="M25.3125 16.25H38.3125C38.125 15.375 37.875 14.5625 37.625 13.75H34.4375L36.875 11.9375C36.375 10.875 35.8125 9.9375 35.125 9L28.75 13.75H26.25V12.5L33.5625 7.125L32.6875 6.25L26.25 10.9375V2.3125C25.4375 2 24.625 1.8125 23.75 1.625V16.25H25.3125ZM1.625 16.25H16.25V1.625C15.375 1.8125 14.5625 2.0625 13.75 2.3125V10.9375L7.3125 6.25C6.4375 7.0625 5.6875 7.9375 4.9375 8.875L11.625 13.75H7.375L3.5625 10.9375C3.375 11.25 3.1875 11.625 3.0625 11.9375L5.5 13.75H2.3125C2.0625 14.5625 1.8125 15.375 1.625 16.25Z" fill="white"/>
<path d="M35.1875 9C34.6875 8.3125 34.1875 7.6875 33.625 7.0625L26.25 12.4375V13.6875H28.75L35.1875 9ZM11.5625 13.75L4.9375 8.875C4.6875 9.1875 4.5 9.5 4.25 9.8125C4.1875 9.875 4.1875 9.9375 4.125 9.9375C3.9375 10.25 3.6875 10.625 3.5 10.9375L7.3125 13.75H11.5625Z" fill="#ED4C5C"/>
<path d="M38.375 16.25H23.75V1.625C22.5625 1.375 21.3125 1.25 20 1.25C18.6875 1.25 17.4375 1.375 16.25 1.625V16.25H1.625C1.375 17.4375 1.25 18.6875 1.25 20C1.25 21.3125 1.375 22.5625 1.625 23.75H16.25V38.375C17.4375 38.625 18.6875 38.75 20 38.75C21.3125 38.75 22.5625 38.625 23.75 38.375V23.75H38.375C38.625 22.5625 38.75 21.3125 38.75 20C38.75 18.6875 38.625 17.4375 38.375 16.25Z" fill="#ED4C5C"/>
</svg>
