<svg width="1055" height="239" viewBox="0 0 1055 239" fill="none" xmlns="http://www.w3.org/2000/svg">
<path d="M119.49 1.94997C117.78 1.09997 115.22 0.119971 112.08 0.00997062C100.99 -0.380029 91.82 10.2 84.55 21.19C75.19 35.3 46.25 88.6 46.25 88.6L27.01 125.66L22.25 133.95C22.25 133.95 31.6 143.83 42.01 145.77C52.42 147.71 60.54 147.71 60.54 147.71L109.25 61.77C109.25 61.77 119.66 44.3 123.01 35.48C126.36 26.66 126.36 19.95 126.27 15.89C126.18 11.84 124.07 7.69997 124.06 7.67997C124.06 7.67997 124.06 7.67997 124.07 7.68997C125.52 9.10997 127.69 11.62 129 15.31C130.23 18.78 130.19 21.86 129.94 24.65C129.02 34.92 125.05 43.45 124.65 44.3C118.49 57.27 107.47 74.77 103.41 82.48C103.41 82.48 101.4 86.3 101.29 91.95C101.26 93.68 101.45 94.15 101.76 94.3C103.32 95.06 108.24 87.93 110.52 84.59C116.2 76.28 119.69 69.38 122.4 64.06C132.18 44.85 131.4 46.87 132.25 44.82C139.89 26.4 138.35 17.28 137.54 13.76C136.45 8.96997 134.33 6.52997 133.13 5.37997C132.49 4.75997 128.43 1.00997 122.72 1.31997C121.38 1.40997 120.26 1.69997 119.49 1.94997Z" fill="white"/>
<path d="M20.49 137.6C22.92 140.53 27.78 145.59 35.55 149.13C44.63 153.27 52.84 153.11 56.73 152.78C50.02 163.5 43.81 172.58 38.61 179.84C36.15 183.28 27.26 195.54 12.73 207.13C8.06 210.86 5.04 212.73 2.85 211.71C-1.84 209.52 0.419996 195.51 1.55 188.54C2.05 185.46 4.22 172.9 13.67 151.72C16.33 145.73 18.77 140.88 20.49 137.6Z" fill="white"/>
<path d="M22.78 211.6C25.23 213.98 29.4 217.3 35.18 218.34C40.3 219.26 44.46 217.98 46.25 217.43C87.54 204.77 95.45 204.22 97.51 206.93C100.16 210.41 95.66 221.84 95.66 221.84C98.73 221.76 103.34 221.45 108.81 220.34C116.67 218.75 119.84 216.81 126.13 214.72C133.96 212.12 150.91 206.51 156.67 212.88C159.07 215.53 160.18 220.99 161.78 228.78C162.31 231.36 162.46 232.76 163.66 234.02C166.93 237.43 174.16 235.71 179.13 234.02" stroke="white" stroke-width="5" stroke-miterlimit="10" stroke-linecap="round"/>
<path d="M228.72 0V238.78" stroke="white" stroke-width="5" stroke-miterlimit="10"/>
<path d="M346.33 119.51C340.33 123.55 333.04 125.57 324.47 125.57C317.75 125.57 310.25 123 301.96 117.86L298.96 123.37H297.67V97.2998H300.24C301.67 104.4 304.24 110.15 307.96 114.56C312.25 119.7 317.75 122.27 324.46 122.27C330.46 122.27 335.28 120.74 338.93 117.68C342.57 114.62 344.4 110.52 344.4 105.38C344.4 98.1598 339.68 92.1598 330.25 87.3898C309.81 77.2298 299.6 67.3198 299.6 57.6498C299.6 54.3498 300.26 51.2898 301.57 48.4698C302.88 45.6598 304.7 43.2098 307.04 41.1298C309.37 39.0498 312.11 37.4298 315.25 36.2598C318.39 35.0998 321.89 34.5198 325.75 34.5198C332.75 34.5198 339.39 36.8498 345.68 41.4998L348.68 36.1798H349.97L350.83 59.3098H348.04C346.18 53.1898 343.82 48.3598 340.97 44.8098C337.4 40.2798 332.61 38.0198 326.61 38.0198C321.75 38.0198 317.82 39.3698 314.82 42.0598C311.82 44.7498 310.32 48.1798 310.32 52.3398C310.32 58.7098 318 65.4398 333.36 72.5298C341.46 76.4498 347.3 80.4898 350.86 84.6498C354.7 89.0598 356.62 94.1398 356.62 99.8898C356.62 108.2 353.19 114.74 346.33 119.51Z" fill="white"/>
<path d="M386.41 123.37L366.69 123.55V120.66L373.55 119.51C376.84 119.02 378.62 116.27 378.91 111.27V100.28V55.0398C378.91 48.3198 378.27 44.2898 376.98 42.9498C375.98 41.6098 372.48 40.4498 366.48 39.4698V36.5398L385.22 36.9098L405.49 36.5398V39.4798C403.2 39.4798 400.92 39.6598 398.63 40.0298C396.63 40.2798 395.34 41.0098 394.77 42.2298L393.48 45.3498C393.48 45.9598 393.44 46.5398 393.37 47.0898C393.3 47.6398 393.19 48.2198 393.05 48.8298L392.62 60.0298V108.86C392.62 110.33 392.83 112.16 393.26 114.37C393.69 116.58 394.47 118.04 395.62 118.78C396.76 119.39 400.05 120.06 405.48 120.8V123.55L386.41 123.37Z" fill="white"/>
<path d="M497.43 100.97L498.07 115.11C493.8 115.11 489.11 116.21 483.99 118.41C472.62 123.18 463.88 125.57 457.76 125.57C446.25 125.57 436.22 121.59 427.7 113.64C423.15 109.23 419.95 104.58 418.1 99.6898C417.53 98.0998 416.89 95.2198 416.18 91.0598C415.89 89.4698 415.68 87.8798 415.54 86.2898C415.4 84.6998 415.33 83.1098 415.33 81.5198C415.33 68.5498 419.4 57.6498 427.55 48.8398C436.26 39.2898 448.13 34.5198 463.13 34.5198C472.56 34.5198 481.13 37.2698 488.85 42.7798L491.42 36.7198H492.92L491.42 63.3398H488.85C488.85 56.2398 486.71 50.3098 482.42 45.5298C477.42 40.3898 470.99 37.8198 463.13 37.8198C452.13 37.8198 443.91 42.3498 438.48 51.3998C434.05 58.8698 431.84 68.4698 431.84 80.2198C431.84 91.2298 433.55 100.29 436.98 107.39C441.84 117.3 449.84 122.26 460.99 122.26C476.13 122.26 483.71 115.83 483.71 102.98C483.71 98.3298 482.92 95.2098 481.35 93.6198C480.06 91.9098 477.06 91.0498 472.35 91.0498V87.9298L489.95 88.1098L506.22 87.9298V91.0498C500.09 91.0598 497.15 94.3598 497.43 100.97Z" fill="white"/>
<path d="M599.46 40.2099C598.46 40.5799 597.46 41.5599 596.46 43.1499L595.17 48.4699V49.7499C595.17 50.8499 595.03 52.0199 594.74 53.2399L594.31 66.6399V125.39H590.67L571.59 101.79L530.01 51.2799V99.0199C530.01 101.48 530.04 103.63 530.12 105.47C530.19 107.31 530.3 108.73 530.44 109.71C530.44 111.68 531.23 114.01 532.8 116.71C533.66 118.43 535.01 119.54 536.87 120.03C538.73 120.52 540.94 120.77 543.51 120.77V123.54L527.43 123.36L513.71 123.54V120.77C516.14 120.77 518.21 120.46 519.93 119.85C521.22 119.48 522.36 118.81 523.36 117.82C524.22 116.72 524.86 114.99 525.29 112.66C525.57 110.94 525.79 109.28 525.93 107.68C526.07 106.08 526.14 104.42 526.14 102.7V46.8599C524 43.7899 521.92 41.7599 519.92 40.7799C518.21 39.6699 515.49 39.1199 511.78 39.1199V36.1699L525.07 36.5399L534.71 36.1699L590.44 104.1V57.0999C590.44 55.8799 590.4 54.7399 590.33 53.6999C590.26 52.6599 590.15 51.7099 590.01 50.8499C590.01 47.7899 589.44 45.4099 588.3 43.6899C586.87 40.6299 583.23 39.0999 577.37 39.0999V36.1599L591.94 36.5299L606.09 36.1599V39.3899C602.96 39.3999 600.74 39.6699 599.46 40.2099Z" fill="white"/>
<path d="M685.4 123.37L665.47 123.55V120.8C666.18 120.68 667.08 120.59 668.15 120.52C669.22 120.46 670.47 120.31 671.9 120.06C674.33 119.45 675.54 117.98 675.54 115.65C675.54 112.84 674.68 109.1 672.97 104.45L668.04 91.7799H635.46L630.53 103.9C628.82 108.19 627.96 111.73 627.96 114.55C627.96 117 629.17 118.71 631.6 119.69L638.67 120.79V123.54L624.09 123.36L610.37 123.54V120.79C612.37 120.42 614.37 119.87 616.37 119.14C617.66 118.65 619.08 117.37 620.66 115.28C623.8 110.75 627.45 103.29 631.59 92.8799L654.09 34.1299H658.38L689.89 112.34C691.75 116.99 696.18 119.81 703.18 120.78V123.53L685.4 123.37ZM651.75 50.1199L636.96 87.7499H666.32L651.75 50.1199Z" fill="white"/>
<path d="M784.21 56.7298C784.21 50.1198 782.35 45.5898 778.64 43.1398C777.49 42.2898 775.43 41.6698 772.42 41.2998C770.85 41.0598 769.24 40.8398 767.6 40.6598C765.96 40.4798 764.35 40.4498 762.78 40.5698L758.07 40.7498C756.5 40.7498 755.32 40.9598 754.53 41.3898C753.74 41.8198 753.35 42.7698 753.35 44.2398V104.45C753.35 108.98 753.7 112.34 754.42 114.55C754.56 115.9 754.99 116.82 755.71 117.3C757.14 118.89 761.21 120.05 767.93 120.79V123.54L745.95 123.36L725.06 123.54V120.79C730.63 120.79 734.45 119.84 736.53 117.94C738.6 116.04 739.64 112.65 739.64 107.75V44.9798C739.64 42.2898 737.93 40.9398 734.5 40.9398H724.43C718.43 40.9398 714.43 41.7998 712.43 43.5098C709.71 45.8398 708.36 50.2398 708.36 56.7298H705.14V36.5298L713.71 36.8998L763.01 37.0798L786.59 36.5298L787.45 56.7198H784.21V56.7298Z" fill="white"/>
<path d="M879.16 40.7598C877.73 41.1298 876.51 42.4098 875.52 44.6098C875.23 45.4698 874.98 46.4798 874.77 47.6398C874.56 48.7998 874.3 50.1198 874.02 51.5898L873.81 63.5198V91.0598C873.81 114.07 862.09 125.57 838.66 125.57C815.8 125.57 804.37 115.41 804.37 95.0998V55.0798C804.37 48.5898 803.73 44.6198 802.44 43.1498C801.44 41.6798 797.87 40.4598 791.72 39.4798V36.5398L810.58 36.9098L830.51 36.5398V39.4898C828.65 39.4898 826.58 39.6798 824.29 40.0398C822.15 40.2898 820.79 41.0298 820.22 42.2498C819.93 42.7398 819.43 43.9098 818.72 45.7498L818.08 48.8898L817.87 60.1398V96.4598C817.87 97.6898 817.98 99.1598 818.19 100.88C818.4 102.6 818.65 104.51 818.94 106.6C819.22 108.44 819.97 110.23 821.19 111.95C822.4 113.67 824.01 115.21 826.01 116.56C828.01 117.91 830.33 119.02 832.98 119.88C835.62 120.74 838.59 121.17 841.87 121.17C852.16 121.17 859.59 118.3 864.16 112.54C868.02 107.65 869.95 99.7498 869.95 88.8598V63.5198L869.31 50.8498C869.17 46.6898 868.02 43.8698 865.88 42.4098C863.45 40.6998 860.16 39.8398 856.02 39.8398V36.8998L871.45 37.2698L886.24 36.8998V39.8398C882.95 39.8398 880.59 40.1498 879.16 40.7598Z" fill="white"/>
<path d="M968.76 123.37L957.19 123.55L927.18 86.4699C925.18 84.2699 922.32 83.1699 918.61 83.1699V108.87C918.61 110.34 918.82 112.17 919.25 114.38C919.68 116.58 920.46 118.05 921.61 118.79C922.75 119.4 926.04 120.07 931.47 120.81V123.56L912.39 123.38L892.67 123.56V120.67L899.53 119.52C902.82 119.03 904.6 116.28 904.89 111.26V100.24V54.8899C904.89 48.1599 904.25 44.1199 902.96 42.7699C901.96 41.4199 898.46 40.2599 892.46 39.2799V36.3399L911.78 36.7099L934.8 36.1599C942.69 36.0399 949.14 37.6899 954.16 41.1199C959.61 44.7899 962.33 50.7299 962.33 58.9299C962.33 65.4199 959.9 70.5599 955.04 74.3499C950.89 77.5299 945.39 79.6699 938.54 80.7799L967.05 114.01C968.48 115.73 970.19 117.19 972.19 118.42C973.9 119.28 976.19 120.03 979.05 120.67V123.56L968.76 123.37ZM941.96 44.9799C938.39 41.5599 932.46 39.8399 924.17 39.8399L920.53 40.2099C919.24 40.5799 918.6 41.7399 918.6 43.6999V80.0499C927.89 80.0499 934.53 79.0699 938.53 77.1099C944.24 74.4199 947.1 69.5199 947.1 62.4199C947.11 54.3399 945.39 48.5299 941.96 44.9799Z" fill="white"/>
<path d="M1054.6 105.19C1054.53 106.29 1054.49 107.46 1054.49 108.68C1054.49 109.78 1054.45 110.88 1054.38 111.98C1054.31 113.08 1054.27 114 1054.27 114.73C1054.27 119.87 1054.13 122.81 1053.84 123.54H982.04V120.65L988.9 119.5C992.19 119.01 993.97 116.25 994.26 111.22V100.2V54.7499C994.26 47.9999 993.62 43.9599 992.33 42.6099C991.33 41.2599 987.83 40.0899 981.83 39.1099V36.1699H1047.2V56.1799H1044.41C1043.12 49.6899 1041.05 45.4099 1038.19 43.3299C1035.33 41.2499 1030.12 40.2099 1022.54 40.2099H1009.89C1008.6 40.2099 1007.96 41.3099 1007.96 43.5099V76.5499C1022.12 76.5499 1029.21 71.1099 1029.21 60.2099H1032.18V62.5999L1031.75 76.5499L1032.39 94.7199H1029.39C1028.53 88.5999 1026.25 84.4999 1022.53 82.4199C1019.67 80.9499 1014.81 80.2199 1007.95 80.2199V103.53C1007.95 109.53 1009.09 113.69 1011.38 116.01C1013.95 118.7 1018.59 120.05 1025.31 120.05C1034.02 120.05 1040.38 119.01 1044.39 116.93C1049.11 114.24 1051.46 109.4 1051.46 102.43H1054.67C1054.7 103.18 1054.67 104.09 1054.6 105.19Z" fill="white"/>
<path d="M297.67 149.01H1054.7" stroke="white" stroke-width="4" stroke-miterlimit="10"/>
<path d="M329.44 185.69C328.9 183.77 328.18 181.79 327.52 180.71C326.56 179.09 325.96 178.67 322.66 178.67H316.66V207.89C316.66 212.57 317.14 213.23 322.84 213.59V215.27H305.38V213.59C310.96 213.23 311.44 212.63 311.44 207.89V178.67H305.98C302.68 178.67 301.72 179.03 300.7 180.83C299.98 182.03 299.5 183.47 298.72 185.69H296.92C297.28 182.03 297.64 178.25 297.82 174.89H299.2C300.1 176.33 300.76 176.27 302.44 176.27H326.2C327.88 176.27 328.36 176.03 329.26 174.89H330.7C330.7 177.71 330.94 182.03 331.24 185.51L329.44 185.69Z" fill="white"/>
<path d="M392.92 177.95C387.94 178.43 387.46 178.73 387.46 183.77V207.83C387.46 212.87 388 213.05 392.92 213.59V215.27H376.84V213.59C381.82 212.99 382.3 212.87 382.3 207.83V195.83H361.78V207.83C361.78 212.81 362.26 212.99 367.18 213.59V215.27H351.16V213.59C356.02 213.05 356.56 212.87 356.56 207.83V183.77C356.56 178.73 356.02 178.43 351.16 177.95V176.27H367.18V177.95C362.38 178.37 361.78 178.79 361.78 183.77V193.31H382.3V183.77C382.3 178.79 381.64 178.37 376.84 177.95V176.27H392.92V177.95Z" fill="white"/>
<path d="M435.16 215.26V213.58C439.06 213.1 439.54 212.5 438.7 210.22C437.92 207.88 436.72 204.88 435.46 201.1H422.5C421.54 203.8 420.64 206.14 419.8 208.6C418.48 212.5 419.32 212.98 424.24 213.58V215.26H410.38V213.58C414.16 213.1 415.12 212.68 417.22 207.28L429.64 175.78L431.56 175.42C435.34 185.68 439.48 197.02 443.26 207.4C445.18 212.62 445.72 213.1 449.98 213.58V215.26H435.16ZM429.16 183.29C427.24 188.45 425.2 193.91 423.4 198.65H434.62L429.16 183.29Z" fill="white"/>
<path d="M467.38 215.26V213.58C472.3 213.04 472.78 212.8 472.78 207.7V183.88C472.78 178.72 472.3 178.48 467.38 177.94V176.26H483.46V177.94C478.48 178.48 478 178.72 478 183.88V207.7C478 212.86 478.48 213.04 483.46 213.58V215.26H467.38Z" fill="white"/>
<path d="M534.64 205.3C534.28 207.16 532.48 213.4 531.88 215.26H503.98V213.58C509.44 213.04 509.92 212.74 509.92 207.64V183.82C509.92 178.72 509.32 178.42 504.52 177.94V176.26H520.6V177.94C515.8 178.42 515.14 178.66 515.14 183.82V208.24C515.14 211.9 515.62 212.74 519.04 212.8C519.1 212.8 523.42 212.86 523.78 212.86C526.84 212.86 527.74 212.5 529.12 211C530.62 209.44 531.88 207.04 532.78 204.82L534.64 205.3Z" fill="white"/>
<path d="M577.53 215.26V213.58C581.43 213.1 581.91 212.5 581.07 210.22C580.29 207.88 579.09 204.88 577.83 201.1H564.87C563.91 203.8 563.01 206.14 562.17 208.6C560.85 212.5 561.69 212.98 566.61 213.58V215.26H552.75V213.58C556.53 213.1 557.49 212.68 559.59 207.28L572.01 175.78L573.93 175.42C577.71 185.68 581.85 197.02 585.63 207.4C587.55 212.62 588.09 213.1 592.35 213.58V215.26H577.53ZM571.53 183.29C569.61 188.45 567.57 193.91 565.77 198.65H576.99L571.53 183.29Z" fill="white"/>
<path d="M651.21 177.95C647.37 178.37 646.11 178.97 645.93 181.73C645.87 183.65 645.75 186.17 645.75 191.75V215.81H643.47L617.79 184.43V199.43C617.79 204.83 617.97 207.53 618.09 209.27C618.21 212.33 619.71 213.23 624.03 213.59V215.27H609.45V213.59C613.17 213.29 614.61 212.39 614.85 209.45C615.03 207.53 615.15 204.83 615.15 199.37V184.07C615.15 182.39 615.03 181.43 613.95 180.11C612.81 178.61 611.55 178.25 608.61 177.95V176.27H617.61L643.05 206.45V191.75C643.05 186.17 642.93 183.59 642.75 181.79C642.57 179.09 641.19 178.25 636.39 177.95V176.27H651.21V177.95Z" fill="white"/>
<path d="M687.69 176.27C696.15 176.27 701.49 177.95 705.21 181.49C708.15 184.37 710.31 188.57 710.31 194.33C710.31 201.35 707.43 207.05 702.81 210.53C698.25 213.95 692.43 215.27 685.05 215.27H671.01V213.59C676.17 213.11 676.41 212.69 676.41 207.77V183.83C676.41 178.67 675.69 178.43 671.01 177.95V176.27H687.69ZM681.63 207.28C681.63 211.78 683.55 213.04 688.05 213.04C698.85 213.04 704.37 205.66 704.37 195.16C704.37 188.62 702.15 183.64 697.41 180.76C694.65 179.02 691.17 178.36 687.15 178.36C684.45 178.36 683.01 178.72 682.41 179.2C681.87 179.56 681.63 180.22 681.63 182.56V207.28Z" fill="white"/>
</svg>
